<svg xmlns="http://www.w3.org/2000/svg" width="1200" height="630" viewBox="0 0 1200 630">
  <defs>
    <style>
      .logo-border { fill: none; stroke: #6c47fe; stroke-miterlimit: 10; stroke-width: 33px; }
      .logo-hidden { fill: none; }
      .logo-purple { fill: #6c47fe; }
    </style>
  </defs>

  <!-- Background -->
  <rect width="1200" height="630" fill="#f8f7f5"/>

  <!-- Subtle bottom strip accent -->
  <rect x="0" y="610" width="1200" height="20" fill="#ede9fe" opacity="0.5"/>

  <!-- Logo mark — 220px wide, centered at x=600, top at y=80 -->
  <!-- Original viewBox 1417.32x1417.32, scale = 220/1417.32 ≈ 0.1552 -->
  <!-- Center offset: 600 - 220/2 = 490, y offset = 80 -->
  <g transform="translate(490, 80) scale(0.1552)">
    <polygon class="logo-hidden" points="1011.63 433.5 700.13 782.04 700.27 973.3 1196.08 433.5 1011.63 433.5"/>
    <path class="logo-purple" d="M307.45,962.1c-60.98-28.04-85.51-82.71-86.21-161.91v-.7h133.87v2.1c.7,47.66,23.83,72.9,79.2,72.9,46.96,0,66.59-21.03,66.59-50.47,0-13.32-4.2-23.13-14.72-30.84-20.33-14.72-55.37-21.73-93.92-30.14-37.85-8.41-77.1-19.62-107.94-39.95-32.24-21.73-51.87-54.67-51.87-109.35,0-30.14,7.01-56.07,21.73-79.2,28.04-46.26,85.51-74.3,171.03-74.3,128.97,0,195.56,57.47,196.26,164.72v.7h-128.27v-.7c-2.1-42.06-21.73-61.68-70.79-61.68-44.16,0-60.28,21.03-60.28,45.56,0,11.92,4.2,22.43,14.72,28.74,18.93,13.32,52.57,19.62,90.42,28.04,38.55,8.41,77.8,19.62,110.04,42.05,32.24,21.73,53.27,56.07,53.27,111.45,0,98.83-67.29,164.72-199.76,164.72-51.87,0-93.22-7.01-123.36-21.73Z"/>
    <polygon class="logo-purple" points="833.07 433.87 700.36 433.87 700.36 675.94 833.07 527.68 833.07 433.87"/>
    <polygon class="logo-purple" points="1195.51 973.38 1024.74 722.49 933.78 824.16 1035.91 973.38 1195.51 973.38"/>
    <rect class="logo-border" x="114.22" y="114.22" width="1188.88" height="1188.88" rx="210.23" ry="210.23"/>
  </g>

  <!-- SkillSnap wordmark -->
  <text
    x="600" y="385"
    font-family="-apple-system, BlinkMacSystemFont, 'Segoe UI', Helvetica, Arial, sans-serif"
    font-size="88" font-weight="800" fill="#1a1a1a"
    text-anchor="middle" letter-spacing="-2"
  >SkillSnap</text>

  <!-- Tagline -->
  <text
    x="600" y="452"
    font-family="-apple-system, BlinkMacSystemFont, 'Segoe UI', Helvetica, Arial, sans-serif"
    font-size="34" font-weight="600" fill="#6c47ff"
    text-anchor="middle" letter-spacing="1"
  >Watch. Trust. Connect.</text>

  <!-- URL -->
  <text
    x="600" y="508"
    font-family="-apple-system, BlinkMacSystemFont, 'Segoe UI', Helvetica, Arial, sans-serif"
    font-size="22" font-weight="400" fill="#b0aaa5"
    text-anchor="middle"
  >skillsnap.com.au</text>
</svg>
